<svg xmlns="http://www.w3.org/2000/svg" height="40" viewBox="0 -960 960 960" width="40"><path d="M376-813.334q-17 0-34.334 1.334-17.333 1.333-27.667 4 61.667 70 94.834 153.833Q441.999-570.333 441.999-480t-33.166 174.5q-33.167 84.167-94.167 152.834 10.333 2.666 27 4.333 16.667 1.667 35.667 1.667 137.711 0 234.522-96.5 96.812-96.5 96.812-236.834t-97.5-236.834q-97.5-96.5-235.167-96.5ZM381.333-880q81.551 0 153.275 30.833 71.725 30.834 125.392 84.5Q713.667-711 744.5-638t30.833 157.333q0 84.334-31.131 157.525-31.132 73.192-84.5 127.334-53.369 54.141-125.306 84.975Q462.458-80 380.667-80q-53.918 0-105.293-13.167-51.374-13.166-90.041-35.5 89.667-62 139.834-154 50.166-92 50.166-197t-50.5-197.666Q274.333-770 184.667-830.667 223.333-853 275.145-866.5T381.333-880Zm60.666 400.667Z"/></svg>