<?xml version="1.0" encoding="UTF-8" standalone="no"?>
<!-- Created with Inkscape (http://www.inkscape.org/) -->

<svg
   width="53.88176mm"
   height="16.935692mm"
   viewBox="0 0 53.88176 16.935692"
   version="1.1"
   id="svg5"
   xml:space="preserve"
   xmlns="http://www.w3.org/2000/svg"
   xmlns:svg="http://www.w3.org/2000/svg"><defs
     id="defs2" /><g
     id="layer1"
     transform="translate(-71.444063,-109.88939)"><text
       xml:space="preserve"
       style="font-size:16.9333px;font-family:Senilita;-inkscape-font-specification:Senilita;fill:#ffffff;stroke-width:0.264583"
       x="70.936066"
       y="126.82509"
       id="text113"><tspan
         id="tspan111"
         style="fill:#ffffff;stroke-width:0.264583"
         x="70.936066"
         y="126.82509">NETZWE</tspan></text><path
       d="m 121.94376,113.98016 0.81815,-1.09087 c -0.22726,-0.17045 -0.51135,-0.27272 -0.81815,-0.27272 -0.30681,0 -0.59089,0.10227 -0.81816,0.27272 l 0.81816,1.09087 m 0,-4.09076 c -0.92042,0 -1.7704,0.30454 -2.45446,0.81815 l 0.40908,0.54544 c 0.56816,-0.42726 1.27722,-0.68179 2.04538,-0.68179 0.76815,0 1.47721,0.25453 2.04537,0.68179 l 0.40908,-0.54544 c -0.68407,-0.51361 -1.53404,-0.81815 -2.45445,-0.81815 m 0,1.36359 c -0.61362,0 -1.17951,0.20226 -1.63631,0.54543 l 0.40908,0.54544 c 0.34089,-0.25681 0.76587,-0.40908 1.22723,-0.40908 0.46134,0 0.88632,0.15227 1.22722,0.40908 l 0.40908,-0.54544 c -0.4568,-0.34317 -1.02269,-0.54543 -1.6363,-0.54543 z"
       id="path273"
       style="fill:#ffffff;stroke-width:0.227264" /><path
       d="m 84.147017,113.98016 0.81815,-1.09087 c -0.22726,-0.17045 -0.51135,-0.27272 -0.81815,-0.27272 -0.30681,0 -0.59089,0.10227 -0.81816,0.27272 l 0.81816,1.09087 m 0,-4.09076 c -0.92042,0 -1.7704,0.30454 -2.45446,0.81815 l 0.40908,0.54544 c 0.56816,-0.42726 1.27722,-0.68179 2.04538,-0.68179 0.76815,0 1.47721,0.25453 2.04537,0.68179 l 0.40908,-0.54544 c -0.68407,-0.51361 -1.53404,-0.81815 -2.45445,-0.81815 m 0,1.36359 c -0.61362,0 -1.17951,0.20226 -1.63631,0.54543 l 0.40908,0.54544 c 0.34089,-0.25681 0.76587,-0.40908 1.22723,-0.40908 0.46134,0 0.88632,0.15227 1.22722,0.40908 l 0.40908,-0.54544 c -0.4568,-0.34317 -1.02269,-0.54543 -1.6363,-0.54543 z"
       id="path282"
       style="fill:#ffffff;stroke-width:0.227264" /></g></svg>
