<?xml version="1.0" encoding="UTF-8" standalone="no"?>
<svg
   viewBox="0 0 479.64938 478.95746"
   version="1.1"
   id="svg12"
   sodipodi:docname="trophy.svg"
   inkscape:export-filename="trophy.svg"
   inkscape:export-xdpi="2304"
   inkscape:export-ydpi="2304"
   width="479.64938"
   height="478.95746"
   xmlns:inkscape="http://www.inkscape.org/namespaces/inkscape"
   xmlns:sodipodi="http://sodipodi.sourceforge.net/DTD/sodipodi-0.dtd"
   xmlns="http://www.w3.org/2000/svg"
   xmlns:svg="http://www.w3.org/2000/svg">
  <defs
     id="defs16" />
  <sodipodi:namedview
     id="namedview14"
     pagecolor="#ffffff"
     bordercolor="#000000"
     borderopacity="0.25"
     inkscape:showpageshadow="2"
     inkscape:pageopacity="0.0"
     inkscape:pagecheckerboard="0"
     inkscape:deskcolor="#d1d1d1"
     showgrid="false"
     inkscape:lockguides="false"
     showguides="true">
    <sodipodi:guide
       position="-47.116149,504.36433"
       orientation="0,-1"
       id="guide3173"
       inkscape:locked="false" />
  </sodipodi:namedview>
  <path
     d="m -30.117451,-46.406872 c -0.9,0 -2,1 -2,2 h -8 c 0,-1 -1.1,-2 -2,-2 h -4 v 9 c 0,1 1,2 2,2 h 2.2 c 0.4,2 1.7,3.7 4.8,4 v 2.08 c -3,0.46 -3,2.92 -3,2.92 h 8 c 0,0 0,-2.46 -3,-2.92 v -2.08 c 3.1,-0.3 4.4,-2 4.8,-4 h 2.2 c 1,0 2,-1 2,-2 v -9 h -4 m -12,9 h -2 v -7 h 2 v 7 m 14,0 h -2 v -7 h 2 z"
     id="path10"
     style="fill:#db861f;fill-opacity:1" />
  <path
     style="fill:#db861f;fill-opacity:1"
     d="m -40.092649,-26.55645 c 0.05135,-0.436765 0.242254,-0.956136 0.487842,-1.327246 0.463641,-0.700612 1.334559,-1.226724 2.307621,-1.394008 l 0.195417,-0.0336 v -1.05025 -1.05025 l -0.06514,-0.01241 c -0.03583,-0.0068 -0.221142,-0.03402 -0.411813,-0.06044 -0.417971,-0.0579 -1.005579,-0.205643 -1.363196,-0.342735 -0.682136,-0.261498 -1.188432,-0.583944 -1.664673,-1.060186 -0.599718,-0.599718 -0.982643,-1.288632 -1.212419,-2.181249 l -0.0836,-0.324779 -1.240108,-0.0155 -1.240109,-0.0155 -0.231326,-0.08072 c -0.718407,-0.250693 -1.303211,-0.887853 -1.449863,-1.579662 -0.03352,-0.15815 -0.04045,-0.961574 -0.04087,-4.742877 l -5.03e-4,-4.552473 h 2.108135 c 1.854968,0 2.127013,0.0056 2.265332,0.04668 0.788468,0.23415 1.514132,1.045093 1.581587,1.767455 l 0.01713,0.18345 h 4.019938 4.019939 l 3.88e-4,-0.137515 c 4.9e-4,-0.173251 0.135672,-0.565829 0.263716,-0.765841 0.246589,-0.385188 0.56049,-0.677251 0.95401,-0.887644 0.403793,-0.215885 0.285084,-0.206587 2.637563,-0.206587 h 2.108135 l -5.03e-4,4.552473 c -4.14e-4,3.76099 -0.0075,4.585189 -0.04049,4.740651 -0.158422,0.745559 -0.813393,1.415567 -1.589109,1.625593 -0.07605,0.02059 -0.579272,0.03944 -1.34704,0.05044 l -1.225632,0.01757 -0.08361,0.324779 c -0.353223,1.372158 -1.168603,2.414567 -2.354617,3.010218 -0.550257,0.276356 -1.229157,0.482999 -1.885673,0.573959 -0.190671,0.02642 -0.375987,0.05362 -0.411813,0.06044 l -0.06514,0.01241 v 1.05025 1.05025 l 0.195416,0.0336 c 1.194328,0.205323 2.141926,0.893704 2.556573,1.857217 0.106561,0.247615 0.212276,0.629442 0.239225,0.864037 l 0.01413,0.12304 h -3.989654 -3.989665 z m -2.017564,-14.352231 v -3.503016 h -1.013269 -1.013269 v 3.503016 3.503015 h 1.013269 1.013269 z m 14.012062,0 v -3.503016 h -1.013269 -1.013269 v 3.503016 3.503015 h 1.013269 1.013269 z"
     id="path3046" />
  <path
     style="fill:#db861f;fill-opacity:1;stroke-width:0.0289505"
     d="m -40.069585,-26.599582 c 0.04971,-0.397844 0.265189,-0.953873 0.509126,-1.313746 0.335652,-0.49518 0.948334,-0.940463 1.619124,-1.176743 0.21037,-0.0741 0.35221,-0.110207 0.774427,-0.197135 l 0.06514,-0.01341 v -1.066507 -1.066507 l -0.267793,-0.03591 c -1.567666,-0.210214 -2.694374,-0.76736 -3.490688,-1.726111 -0.441657,-0.531748 -0.721638,-1.08117 -0.921411,-1.808128 l -0.109286,-0.397685 -1.257496,-0.02143 -1.257497,-0.02143 -0.242786,-0.09531 c -0.561054,-0.220261 -0.980627,-0.599186 -1.245209,-1.124575 -0.184117,-0.365608 -0.17574,-0.147722 -0.198154,-5.153958 l -0.02047,-4.571741 2.134276,0.01925 2.134276,0.01925 0.202276,0.07035 c 0.526142,0.182974 1.022719,0.625552 1.297359,1.156282 0.100714,0.194623 0.143759,0.339047 0.188807,0.633481 l 0.01661,0.108565 h 4.02104 4.02104 l 0.01889,-0.137515 c 0.04927,-0.358605 0.189334,-0.677937 0.433156,-0.987559 0.29815,-0.378614 0.843566,-0.749062 1.199946,-0.815009 0.08945,-0.01655 1.056193,-0.03733 2.237606,-0.04809 l 2.08011,-0.01895 -0.01737,4.542766 c -0.01125,2.94153 -0.02809,4.61286 -0.0478,4.741625 -0.03866,0.252621 -0.225371,0.631116 -0.438462,0.888825 -0.243708,0.294738 -0.61187,0.554529 -0.971741,0.685705 -0.17937,0.06538 -0.248172,0.07148 -1.074631,0.09521 -0.485646,0.01395 -1.05925,0.02588 -1.274678,0.02651 l -0.391685,0.0012 -0.08246,0.311218 c -0.432584,1.632711 -1.454733,2.754832 -2.999071,3.292397 -0.408735,0.142276 -0.892209,0.257845 -1.338962,0.320064 l -0.36912,0.05141 v 1.066188 1.066187 l 0.06514,0.01341 c 0.422217,0.08693 0.564057,0.123034 0.774427,0.197135 0.852634,0.300333 1.512758,0.867281 1.85152,1.59018 0.129149,0.275597 0.246296,0.656721 0.27673,0.900309 l 0.02076,0.166172 h -3.972883 -3.972896 z m -2.040628,-14.309099 v -3.503016 h -1.013269 -1.013269 v 3.503016 3.503015 h 1.013269 1.013269 z m 14.012062,0 v -3.503016 h -1.013269 -1.013269 v 3.503016 3.503015 h 1.013269 1.013269 z"
     id="path3048"
     inkscape:export-filename=".\path3048.svg"
     inkscape:export-xdpi="2766.821"
     inkscape:export-ydpi="2766.821" />
  <path
     style="fill:#db861f;fill-opacity:1;stroke-width:0.0289505"
     d=""
     id="path3119" />
</svg>
